<?xml version="1.0" standalone="no"?>
<!DOCTYPE svg PUBLIC "-//W3C//DTD SVG 20010904//EN"
 "http://www.w3.org/TR/2001/REC-SVG-20010904/DTD/svg10.dtd">
<svg version="1.0" xmlns="http://www.w3.org/2000/svg"
 width="250.000000pt" height="250.000000pt" viewBox="0 0 250.000000 250.000000"
 preserveAspectRatio="xMidYMid meet">

<g transform="translate(0.000000,250.000000) scale(0.100000,-0.100000)"
fill="#000000" stroke="none">
<path d="M0 1250 l0 -1250 1250 0 1250 0 0 1250 0 1250 -1250 0 -1250 0 0
-1250z m2030 -241 c0 -37 2 -40 23 -33 72 25 107 -9 107 -102 l0 -64 -30 0
c-29 0 -29 1 -32 62 -3 53 -6 63 -22 66 -28 6 -46 -25 -46 -80 0 -45 -2 -48
-25 -48 l-25 0 0 120 0 120 25 0 c23 0 25 -4 25 -41z m-1515 17 c38 -16 43
-27 21 -45 -11 -9 -20 -9 -35 -2 -34 19 -68 13 -91 -16 -38 -48 -6 -107 55
-101 26 3 30 8 33 36 3 26 7 32 28 32 22 0 24 -4 24 -48 0 -43 -3 -50 -25 -60
-36 -17 -101 -15 -136 4 -60 30 -73 120 -25 173 38 42 91 52 151 27z m355 -81
l0 -85 55 0 c52 0 55 -1 55 -25 0 -25 -1 -25 -85 -25 l-85 0 0 110 0 110 30 0
30 0 0 -85z m328 60 c38 -32 49 -83 27 -128 -22 -47 -50 -60 -137 -65 l-78 -5
0 112 0 111 79 0 c70 0 83 -3 109 -25z m352 5 c0 -16 -7 -20 -35 -20 l-35 0 0
-90 0 -90 -30 0 -30 0 0 90 0 90 -35 0 c-28 0 -35 4 -35 20 0 19 7 20 100 20
93 0 100 -1 100 -20z m-802 -53 c22 -20 29 -66 16 -102 -9 -22 -57 -45 -94
-45 -40 0 -90 47 -90 85 0 82 104 121 168 62z m947 18 c21 -8 39 -25 45 -40
19 -51 15 -55 -57 -55 -63 -1 -67 -2 -48 -16 13 -10 31 -13 52 -9 38 7 54 -12
27 -32 -24 -19 -98 -12 -124 12 -44 40 -31 117 24 141 39 17 40 17 81 -1z
m239 -15 c18 -18 18 -18 -3 -29 -15 -9 -25 -8 -41 1 -26 17 -54 0 -58 -35 -4
-35 32 -56 56 -34 14 13 21 13 39 4 24 -13 20 -28 -14 -46 -80 -42 -174 43
-132 120 25 47 112 58 153 19z"/>
<path d="M1070 925 l0 -65 33 0 c41 0 64 17 72 52 9 36 -31 78 -75 78 l-30 0
0 -65z"/>
<path d="M647 933 c-15 -14 -7 -63 12 -73 27 -14 28 -13 46 14 13 19 14 29 5
45 -10 20 -49 29 -63 14z"/>
<path d="M1632 938 c-20 -20 -14 -28 23 -28 37 0 49 22 19 34 -22 8 -28 8 -42
-6z"/>
</g>
</svg>
